<svg xmlns="http://www.w3.org/2000/svg" xmlns:xlink="http://www.w3.org/1999/xlink" xmlns:lucid="lucid" width="1106" height="720"><g transform="translate(-220 -300)" lucid:page-tab-id="0_0"><path d="M840 526a6 6 0 0 1 6-6h288a6 6 0 0 1 6 6v88a6 6 0 0 1-6 6H846a6 6 0 0 1-6-6z" fill="#f4d9ff"/><path d="M856.1 520h10.1m5.06 0h10.1m5.06 0h10.1m5.06 0h10.1m5.06 0h10.1m5.05 0H942m5.05 0h10.1m5.06 0h10.12m5.05 0h10.1m5.06 0h10.1m5.05 0h10.1m5.06 0h10.1m5.06 0h10.1m5.06 0h10.1m5.06 0h10.1m5.05 0h10.1m5.06 0h10.1m5.06 0h10.1m5.05 0h5.05l.94.07.9.22.88.35.8.5.72.6.6.72.5.8.37.88.23.9.07.95v4.9m0 4.88v9.78m0 4.88v9.78m0 4.9v9.77m0 4.88v9.78m0 4.88v9.78m0 4.9V614l-.07.94-.22.9-.35.88-.5.8-.6.72-.72.6-.8.5-.88.37-.9.23-.95.07h-5.05m-5.06 0h-10.1m-5.06 0h-10.1m-5.06 0h-10.1m-5.06 0h-10.1m-5.06 0h-10.1m-5.06 0H1038m-5.05 0h-10.1m-5.06 0h-10.12m-5.05 0h-10.1m-5.06 0h-10.1m-5.05 0h-10.1m-5.06 0h-10.1m-5.06 0h-10.1m-5.06 0h-10.1m-5.06 0h-10.1m-5.05 0h-10.1m-5.06 0h-10.1m-5.06 0h-10.1m-5.05 0H846l-.94-.07-.9-.22-.88-.35-.8-.5-.72-.6-.6-.72-.5-.8-.37-.88-.23-.9-.07-.95v-4.9m0-4.88v-9.78m0-4.88v-9.78m0-4.9v-9.77m0-4.88v-9.78m0-4.88v-9.78m0-4.9V526l.07-.94.22-.9.35-.88.5-.8.6-.72.72-.6.8-.5.88-.37.9-.23.95-.07h5.05" stroke="#3a414a" fill="none"/><use xlink:href="#a" transform="matrix(1,0,0,1,852,532) translate(3.481481481481495 42.70833333333333)"/><use xlink:href="#b" transform="matrix(1,0,0,1,852,532) translate(133.62962962962965 42.70833333333333)"/><use xlink:href="#c" transform="matrix(1,0,0,1,852,532) translate(148.44444444444446 42.70833333333333)"/><path d="M240 526a6 6 0 0 1 6-6h288a6 6 0 0 1 6 6v88a6 6 0 0 1-6 6H246a6 6 0 0 1-6-6z" fill="#dedeff"/><path d="M256.1 520h10.1m5.06 0h10.1m5.06 0h10.1m5.06 0h10.1m5.06 0h10.1m5.06 0H342m5.05 0h10.1m5.06 0h10.12m5.05 0h10.1m5.06 0h10.1m5.05 0h10.1m5.06 0h10.1m5.06 0h10.1m5.06 0h10.1m5.06 0h10.1m5.05 0h10.1m5.06 0h10.1m5.06 0h10.1m5.05 0H534l.94.07.9.22.88.35.8.5.72.6.6.72.5.8.37.88.23.9.07.95v4.9m0 4.88v9.78m0 4.88v9.78m0 4.9v9.77m0 4.88v9.78m0 4.88v9.78m0 4.9V614l-.07.94-.22.9-.35.88-.5.8-.6.72-.72.6-.8.5-.88.37-.9.23-.95.07h-5.05m-5.06 0h-10.1m-5.06 0h-10.1m-5.06 0h-10.1m-5.06 0h-10.1m-5.06 0h-10.1m-5.06 0H438m-5.05 0h-10.1m-5.06 0h-10.12m-5.05 0h-10.1m-5.06 0h-10.1m-5.05 0h-10.1m-5.06 0h-10.1m-5.06 0h-10.1m-5.06 0h-10.1m-5.06 0h-10.1m-5.05 0h-10.1m-5.06 0h-10.1m-5.06 0h-10.1m-5.05 0H246l-.94-.07-.9-.22-.88-.35-.8-.5-.72-.6-.6-.72-.5-.8-.37-.88-.23-.9-.07-.95v-4.9m0-4.88v-9.78m0-4.88v-9.78m0-4.9v-9.77m0-4.88v-9.78m0-4.88v-9.78m0-4.9V526l.07-.94.22-.9.35-.88.5-.8.6-.72.72-.6.8-.5.88-.37.9-.23.95-.07h5.05" stroke="#3a414a" fill="none"/><use xlink:href="#d" transform="matrix(1,0,0,1,252,532) translate(87.07407407407408 42.70833333333333)"/><use xlink:href="#e" transform="matrix(1,0,0,1,252,532) translate(162.33333333333331 42.70833333333333)"/><path d="M840 706a6 6 0 0 1 6-6h288a6 6 0 0 1 6 6v88a6 6 0 0 1-6 6H846a6 6 0 0 1-6-6z" fill="#ffd9d9"/><path d="M856.1 700h10.1m5.06 0h10.1m5.06 0h10.1m5.06 0h10.1m5.06 0h10.1m5.05 0H942m5.05 0h10.1m5.06 0h10.12m5.05 0h10.1m5.06 0h10.1m5.05 0h10.1m5.06 0h10.1m5.06 0h10.1m5.06 0h10.1m5.06 0h10.1m5.05 0h10.1m5.06 0h10.1m5.06 0h10.1m5.05 0h5.05l.94.07.9.22.88.35.8.5.72.6.6.72.5.8.37.88.23.9.07.95v4.9m0 4.88v9.78m0 4.88v9.78m0 4.9v9.77m0 4.88v9.78m0 4.88v9.78m0 4.9V794l-.07.94-.22.9-.35.88-.5.8-.6.72-.72.6-.8.5-.88.37-.9.23-.95.07h-5.05m-5.06 0h-10.1m-5.06 0h-10.1m-5.06 0h-10.1m-5.06 0h-10.1m-5.06 0h-10.1m-5.06 0H1038m-5.05 0h-10.1m-5.06 0h-10.12m-5.05 0h-10.1m-5.06 0h-10.1m-5.05 0h-10.1m-5.06 0h-10.1m-5.06 0h-10.1m-5.06 0h-10.1m-5.06 0h-10.1m-5.05 0h-10.1m-5.06 0h-10.1m-5.06 0h-10.1m-5.05 0H846l-.94-.07-.9-.22-.88-.35-.8-.5-.72-.6-.6-.72-.5-.8-.37-.88-.23-.9-.07-.95v-4.9m0-4.88v-9.78m0-4.88v-9.78m0-4.9v-9.77m0-4.88v-9.78m0-4.88v-9.78m0-4.9V706l.07-.94.22-.9.35-.88.5-.8.6-.72.72-.6.8-.5.88-.37.9-.23.95-.07h5.05" stroke="#3a414a" fill="none"/><use xlink:href="#d" transform="matrix(1,0,0,1,852,712) translate(53.03703703703705 42.70833333333333)"/><use xlink:href="#f" transform="matrix(1,0,0,1,852,712) translate(128.2962962962963 42.70833333333333)"/><path d="M840 326a6 6 0 0 1 6-6h288a6 6 0 0 1 6 6v88a6 6 0 0 1-6 6H846a6 6 0 0 1-6-6z" fill="#c3f7c8"/><path d="M856.1 320h10.1m5.06 0h10.1m5.06 0h10.1m5.06 0h10.1m5.06 0h10.1m5.05 0H942m5.05 0h10.1m5.06 0h10.12m5.05 0h10.1m5.06 0h10.1m5.05 0h10.1m5.06 0h10.1m5.06 0h10.1m5.06 0h10.1m5.06 0h10.1m5.05 0h10.1m5.06 0h10.1m5.06 0h10.1m5.05 0h5.05l.94.07.9.22.88.35.8.5.72.6.6.72.5.8.37.88.23.9.07.95v4.9m0 4.88v9.78m0 4.88v9.78m0 4.9v9.77m0 4.88v9.78m0 4.88v9.78m0 4.9V414l-.07.94-.22.9-.35.88-.5.8-.6.72-.72.6-.8.5-.88.37-.9.23-.95.07h-5.05m-5.06 0h-10.1m-5.06 0h-10.1m-5.06 0h-10.1m-5.06 0h-10.1m-5.06 0h-10.1m-5.06 0H1038m-5.05 0h-10.1m-5.06 0h-10.12m-5.05 0h-10.1m-5.06 0h-10.1m-5.05 0h-10.1m-5.06 0h-10.1m-5.06 0h-10.1m-5.06 0h-10.1m-5.06 0h-10.1m-5.05 0h-10.1m-5.06 0h-10.1m-5.06 0h-10.1m-5.05 0H846l-.94-.07-.9-.22-.88-.35-.8-.5-.72-.6-.6-.72-.5-.8-.37-.88-.23-.9-.07-.95v-4.9m0-4.88v-9.78m0-4.88v-9.78m0-4.9v-9.77m0-4.88v-9.78m0-4.88v-9.78m0-4.9V326l.07-.94.22-.9.35-.88.5-.8.6-.72.72-.6.8-.5.88-.37.9-.23.95-.07h5.05" stroke="#3a414a" fill="none"/><use xlink:href="#g" transform="matrix(1,0,0,1,852,332) translate(88.48148148148148 42.70833333333333)"/><path d="M561.12 570h257.76" stroke="#3a414a" stroke-width="3" fill="none"/><path d="M545.35 570l14.27-4.63v9.26zM834.65 570l-14.27 4.63v-9.26z" stroke="#3a414a" stroke-width="3" fill="#fff"/><path d="M390 498.88V376a6 6 0 0 1 6-6h422.88" stroke="#3a414a" stroke-width="3" fill="none"/><path d="M390 514.65l-4.63-14.27h9.26zM834.65 370l-14.27 4.63v-9.26z" stroke="#3a414a" stroke-width="3" fill="#fff"/><path d="M390 641.12V744a6 6 0 0 0 6 6h422.88" stroke="#3a414a" stroke-width="3" fill="none"/><path d="M390 625.35l4.63 14.27h-9.26zM834.65 750l-14.27 4.63v-9.26z" stroke="#3a414a" stroke-width="3" fill="#fff"/><path d="M1161.12 750H1304a6 6 0 0 0 6-6V376a6 6 0 0 0-6-6h-162" stroke="#3a414a" stroke-width="3" fill="none"/><path d="M1145.35 750l14.27-4.63v9.26z" stroke="#3a414a" stroke-width="3" fill="#fff"/><path d="M1142.04 371.5h-1.54v-3h1.54z" stroke="#3a414a" stroke-width=".05" fill="#3a414a"/><path d="M990 678.88V622" stroke="#3a414a" stroke-width="3" fill="none"/><path d="M990 694.65l-4.63-14.27h9.26z" stroke="#3a414a" stroke-width="3" fill="#fff"/><path d="M991.5 622.04h-3v-1.54h3z" stroke="#3a414a" stroke-width=".05" fill="#3a414a"/><path d="M990 518v-76.88" stroke="#3a414a" stroke-width="3" fill="none"/><path d="M991.5 519.5h-3v-1.54h3z" stroke="#3a414a" stroke-width=".05" fill="#3a414a"/><path d="M990 425.35l4.63 14.27h-9.26z" stroke="#3a414a" stroke-width="3" fill="#fff"/><path d="M1085 988c0 6.63-42.53 12-95 12s-95-5.37-95-12v-96c0-6.63 42.53-12 95-12s95 5.37 95 12z" fill="#fff7a1"/><path d="M1076 993.1l-.47.13-4.6 1.05-5.5.97m-5.35.8l-10.73 1.3m-5.38.43l-10.78.74m-5.4.37l-6.3.43-4.5.1m-5.4.1l-10.8.24m-5.4.1l-5.4.13-5.4-.14m-5.4-.13l-10.8-.27m-5.4-.14l-9.54-.24-1.26-.1m-5.4-.4l-10.76-.84m-5.4-.4l-1.55-.13-9.17-1.18m-5.35-.74l-6.42-1.18-4.16-1m-5.13-1.7l-.3-.14-.82-.38-.58-.32-.44-.27-.34-.24-.28-.2-.2-.2-.18-.15-.14-.14-.1-.14-.1-.12-.1-.12-.05-.1-.06-.1-.05-.1-.04-.1-.02-.1-.03-.08-.02-.08v-.1l-.02-.07v-5.48m0-5.34v-10.66m0-5.34v-10.66m0-5.34v-10.66m0-5.34v-10.66m0-5.34v-10.66m0-5.34v-5.49l.02-.1v-.07l.04-.1.02-.07.03-.1.05-.1.05-.1.06-.1.07-.1.08-.12.1-.13.12-.13.15-.15.17-.17.22-.18.28-.2.35-.25.45-.28.62-.34.84-.4.17-.06m5.13-1.7l.47-.13 4.6-1.05 5.5-.97m5.35-.8l10.73-1.3m5.38-.43l10.78-.74m5.4-.37l6.3-.43 4.5-.1m5.4-.1l10.8-.24m5.4-.1l5.4-.13 5.4.14m5.4.13l10.8.27m5.4.14l9.54.24 1.26.1m5.4.4l10.76.84m5.4.4l1.55.13 9.17 1.18m5.35.74l6.42 1.18 4.16 1m5.13 1.7l.3.14.8.38.6.32.44.27.34.24.28.2.2.2.18.15.14.14.1.14.1.12.1.12.05.1.06.1.05.1.04.1.02.1.03.08.02.08v.1l.02.07v5.48m0 5.34v10.66m0 5.34v10.66m0 5.34v10.66m0 5.34v10.66m0 5.34v10.66m0 5.34v5.49l-.02.1-.02.07-.02.1-.02.07-.04.1-.03.1-.05.1-.06.1-.07.1-.08.12-.1.13-.12.13-.15.15-.17.17-.22.18-.28.2-.35.25-.45.28-.62.34-.84.4-.17.06" stroke="#3a414a" fill="none"/><path d="M1085 892c0 6.63-42.53 12-95 12s-95-5.37-95-12" fill="none"/><path d="M1085 892v.16l-.02.1-.02.07-.02.1-.02.07-.04.1-.03.1-.05.1-.06.1-.07.1-.08.12-.1.13-.12.13-.15.15-.17.17-.22.18-.28.2-.35.25-.45.28-.62.34-.84.4-.17.06m-5.13 1.7l-.47.13-4.6 1.05-5.5.97m-5.35.8l-10.73 1.3m-5.38.43l-10.78.74m-5.4.37l-6.3.43-4.5.1m-5.4.1l-10.8.24m-5.4.1l-5.4.13-5.4-.14m-5.4-.13l-10.8-.27m-5.4-.14l-9.54-.24-1.26-.1m-5.4-.4l-10.76-.84m-5.4-.4l-1.55-.13-9.17-1.18m-5.35-.74l-6.42-1.18-4.16-1m-5.13-1.7l-.3-.14-.82-.38-.58-.32-.44-.27-.34-.24-.28-.2-.2-.2-.18-.15-.14-.14-.1-.14-.1-.12-.1-.12-.05-.1-.06-.1-.05-.1-.04-.1-.02-.1-.03-.08-.02-.08v-.1l-.02-.07V892" stroke="#3a414a" fill="none"/><use xlink:href="#h" transform="matrix(1,0,0,1,900,909) translate(43.73456790123457 47.34027777777778)"/><path d="M990 821.12v37.76" stroke="#3a414a" stroke-width="3" fill="none"/><path d="M990 805.35l4.63 14.27h-9.26zM990 874.65l-4.63-14.27h9.26z" stroke="#3a414a" stroke-width="3" fill="#fff"/><defs><path fill="#3a414a" d="M24 0v-248h195v40H76v63h132v40H76v65h150V0H24" id="i"/><path fill="#3a414a" d="M115-3C79 11 28 4 28-45v-112H4v-33h27l15-45h31v45h36v33H77v99c-1 23 16 31 38 25v30" id="j"/><path fill="#3a414a" d="M114-157C55-157 80-60 75 0H25v-261h50l-1 109c12-26 28-41 61-42 86-1 58 113 63 194h-50c-7-57 23-157-34-157" id="k"/><path fill="#3a414a" d="M185-48c-13 30-37 53-82 52C43 2 14-33 14-96s30-98 90-98c62 0 83 45 84 108H66c0 31 8 55 39 56 18 0 30-7 34-22zm-45-69c5-46-57-63-70-21-2 6-4 13-4 21h74" id="l"/><path fill="#3a414a" d="M135-150c-39-12-60 13-60 57V0H25l-1-190h47c2 13-1 29 3 40 6-28 27-53 61-41v41" id="m"/><path fill="#3a414a" d="M85 4C-2 5 27-109 22-190h50c7 57-23 150 33 157 60-5 35-97 40-157h50l1 190h-47c-2-12 1-28-3-38-12 25-28 42-61 42" id="n"/><path fill="#3a414a" d="M220-157c-53 9-28 100-34 157h-49v-107c1-27-5-49-29-50C55-147 81-57 75 0H25l-1-190h47c2 12-1 28 3 38 10-53 101-56 108 0 13-22 24-43 59-42 82 1 51 116 57 194h-49v-107c-1-25-5-48-29-50" id="o"/><g id="a"><use transform="matrix(0.07407407407407407,0,0,0.07407407407407407,0,0)" xlink:href="#i"/><use transform="matrix(0.07407407407407407,0,0,0.07407407407407407,17.77777777777778,0)" xlink:href="#j"/><use transform="matrix(0.07407407407407407,0,0,0.07407407407407407,26.592592592592595,0)" xlink:href="#k"/><use transform="matrix(0.07407407407407407,0,0,0.07407407407407407,42.814814814814824,0)" xlink:href="#l"/><use transform="matrix(0.07407407407407407,0,0,0.07407407407407407,57.62962962962963,0)" xlink:href="#m"/><use transform="matrix(0.07407407407407407,0,0,0.07407407407407407,68,0)" xlink:href="#l"/><use transform="matrix(0.07407407407407407,0,0,0.07407407407407407,82.81481481481481,0)" xlink:href="#n"/><use transform="matrix(0.07407407407407407,0,0,0.07407407407407407,99.03703703703704,0)" xlink:href="#o"/></g><path fill="#3a414a" d="M4 7l51-268h42L46 7H4" id="p"/><use transform="matrix(0.07407407407407407,0,0,0.07407407407407407,0,0)" xlink:href="#p" id="b"/><path fill="#3a414a" d="M67-125c0 53 21 87 73 88 37 1 54-22 65-47l45 17C233-25 199 4 140 4 58 4 20-42 15-125 8-235 124-281 211-232c18 10 29 29 36 50l-46 12c-8-25-30-41-62-41-52 0-71 34-72 86" id="q"/><path fill="#3a414a" d="M110-194c64 0 96 36 96 99 0 64-35 99-97 99-61 0-95-36-95-99 0-62 34-99 96-99zm-1 164c35 0 45-28 45-65 0-40-10-65-43-65-34 0-45 26-45 65 0 36 10 65 43 65" id="r"/><path fill="#3a414a" d="M135-194c87-1 58 113 63 194h-50c-7-57 23-157-34-157-59 0-34 97-39 157H25l-1-190h47c2 12-1 28 3 38 12-26 28-41 61-42" id="s"/><path fill="#3a414a" d="M133-34C117-15 103 5 69 4 32 3 11-16 11-54c-1-60 55-63 116-61 1-26-3-47-28-47-18 1-26 9-28 27l-52-2c7-38 36-58 82-57s74 22 75 68l1 82c-1 14 12 18 25 15v27c-30 8-71 5-69-32zm-48 3c29 0 43-24 42-57-32 0-66-3-65 30 0 17 8 27 23 27" id="t"/><path fill="#3a414a" d="M190-63c-7 42-38 67-86 67-59 0-84-38-90-98-12-110 154-137 174-36l-49 2c-2-19-15-32-35-32-30 0-35 28-38 64-6 74 65 87 74 30" id="u"/><path fill="#3a414a" d="M137-138c1-29-70-34-71-4 15 46 118 7 119 86 1 83-164 76-172 9l43-7c4 19 20 25 44 25 33 8 57-30 24-41C81-84 22-81 20-136c-2-80 154-74 161-7" id="v"/><g id="c"><use transform="matrix(0.07407407407407407,0,0,0.07407407407407407,0,0)" xlink:href="#q"/><use transform="matrix(0.07407407407407407,0,0,0.07407407407407407,19.185185185185183,0)" xlink:href="#r"/><use transform="matrix(0.07407407407407407,0,0,0.07407407407407407,35.407407407407405,0)" xlink:href="#s"/><use transform="matrix(0.07407407407407407,0,0,0.07407407407407407,51.629629629629626,0)" xlink:href="#j"/><use transform="matrix(0.07407407407407407,0,0,0.07407407407407407,60.44444444444444,0)" xlink:href="#m"/><use transform="matrix(0.07407407407407407,0,0,0.07407407407407407,70.81481481481481,0)" xlink:href="#t"/><use transform="matrix(0.07407407407407407,0,0,0.07407407407407407,85.62962962962962,0)" xlink:href="#u"/><use transform="matrix(0.07407407407407407,0,0,0.07407407407407407,100.44444444444443,0)" xlink:href="#j"/><use transform="matrix(0.07407407407407407,0,0,0.07407407407407407,109.25925925925924,0)" xlink:href="#v"/></g><path fill="#3a414a" d="M88-194c31-1 46 15 58 34l-1-101h50l1 261h-48c-2-10 0-23-3-31C134-8 116 4 84 4 32 4 16-41 15-95c0-56 19-97 73-99zm17 164c33 0 40-30 41-66 1-37-9-64-41-64s-38 30-39 65c0 43 13 65 39 65" id="w"/><path fill="#3a414a" d="M199 0l-22-63H83L61 0H9l90-248h61L250 0h-51zm-33-102l-36-108c-10 38-24 72-36 108h72" id="x"/><path fill="#3a414a" d="M135-194c53 0 70 44 70 98 0 56-19 98-73 100-31 1-45-17-59-34 3 33 2 69 2 105H25l-1-265h48c2 10 0 23 3 31 11-24 29-35 60-35zM114-30c33 0 39-31 40-66 0-38-9-64-40-64-56 0-55 130 0 130" id="y"/><g id="d"><use transform="matrix(0.07407407407407407,0,0,0.07407407407407407,0,0)" xlink:href="#w"/><use transform="matrix(0.07407407407407407,0,0,0.07407407407407407,16.22222222222222,0)" xlink:href="#x"/><use transform="matrix(0.07407407407407407,0,0,0.07407407407407407,35.407407407407405,0)" xlink:href="#y"/><use transform="matrix(0.07407407407407407,0,0,0.07407407407407407,51.629629629629626,0)" xlink:href="#y"/></g><path fill="#3a414a" d="M238-95c0 69-44 99-111 99C63 4 22-25 22-93v-155h51v151c-1 38 19 59 55 60 90 1 49-130 58-211h52v153" id="z"/><path fill="#3a414a" d="M24 0v-248h52V0H24" id="A"/><g id="e"><use transform="matrix(0.07407407407407407,0,0,0.07407407407407407,0,0)" xlink:href="#z"/><use transform="matrix(0.07407407407407407,0,0,0.07407407407407407,19.185185185185183,0)" xlink:href="#A"/></g><path fill="#3a414a" d="M144 0l-44-69L55 0H2l70-98-66-92h53l41 62 40-62h54l-67 91 71 99h-54" id="B"/><g id="f"><use transform="matrix(0.07407407407407407,0,0,0.07407407407407407,0,0)" xlink:href="#A"/><use transform="matrix(0.07407407407407407,0,0,0.07407407407407407,7.4074074074074066,0)" xlink:href="#s"/><use transform="matrix(0.07407407407407407,0,0,0.07407407407407407,23.629629629629623,0)" xlink:href="#w"/><use transform="matrix(0.07407407407407407,0,0,0.07407407407407407,39.85185185185185,0)" xlink:href="#l"/><use transform="matrix(0.07407407407407407,0,0,0.07407407407407407,54.66666666666666,0)" xlink:href="#B"/><use transform="matrix(0.07407407407407407,0,0,0.07407407407407407,69.48148148148147,0)" xlink:href="#l"/><use transform="matrix(0.07407407407407407,0,0,0.07407407407407407,84.29629629629628,0)" xlink:href="#m"/></g><path fill="#3a414a" d="M169-182c-1-43-94-46-97-3 18 66 151 10 154 114 3 95-165 93-204 36-6-8-10-19-12-30l50-8c3 46 112 56 116 5-17-69-150-10-154-114-4-87 153-88 188-35 5 8 8 18 10 28" id="C"/><path fill="#3a414a" d="M195-6C206 82 75 100 31 46c-4-6-6-13-8-21l49-6c3 16 16 24 34 25 40 0 42-37 40-79-11 22-30 35-61 35-53 0-70-43-70-97 0-56 18-96 73-97 30 0 46 14 59 34l2-30h47zm-90-29c32 0 41-27 41-63 0-35-9-62-40-62-32 0-39 29-40 63 0 36 9 62 39 62" id="D"/><g id="g"><use transform="matrix(0.07407407407407407,0,0,0.07407407407407407,0,0)" xlink:href="#C"/><use transform="matrix(0.07407407407407407,0,0,0.07407407407407407,17.77777777777778,0)" xlink:href="#j"/><use transform="matrix(0.07407407407407407,0,0,0.07407407407407407,26.592592592592595,0)" xlink:href="#r"/><use transform="matrix(0.07407407407407407,0,0,0.07407407407407407,42.814814814814824,0)" xlink:href="#m"/><use transform="matrix(0.07407407407407407,0,0,0.07407407407407407,53.18518518518519,0)" xlink:href="#t"/><use transform="matrix(0.07407407407407407,0,0,0.07407407407407407,68,0)" xlink:href="#D"/><use transform="matrix(0.07407407407407407,0,0,0.07407407407407407,84.22222222222223,0)" xlink:href="#l"/></g><path fill="#3a414a" d="M240 0l2-218c-23 76-54 145-80 218h-23L58-218 59 0H30v-248h44l77 211c21-75 51-140 76-211h43V0h-30" id="E"/><path fill="#3a414a" d="M100-194c63 0 86 42 84 106H49c0 40 14 67 53 68 26 1 43-12 49-29l28 8c-11 28-37 45-77 45C44 4 14-33 15-96c1-61 26-98 85-98zm52 81c6-60-76-77-97-28-3 7-6 17-6 28h103" id="F"/><path fill="#3a414a" d="M59-47c-2 24 18 29 38 22v24C64 9 27 4 27-40v-127H5v-23h24l9-43h21v43h35v23H59v120" id="G"/><path fill="#3a414a" d="M141-36C126-15 110 5 73 4 37 3 15-17 15-53c-1-64 63-63 125-63 3-35-9-54-41-54-24 1-41 7-42 31l-33-3c5-37 33-52 76-52 45 0 72 20 72 64v82c-1 20 7 32 28 27v20c-31 9-61-2-59-35zM48-53c0 20 12 33 32 33 41-3 63-29 60-74-43 2-92-5-92 41" id="H"/><path fill="#3a414a" d="M85-194c31 0 48 13 60 33l-1-100h32l1 261h-30c-2-10 0-23-3-31C134-8 116 4 85 4 32 4 16-35 15-94c0-66 23-100 70-100zm9 24c-40 0-46 34-46 75 0 40 6 74 45 74 42 0 51-32 51-76 0-42-9-74-50-73" id="I"/><g id="h"><use transform="matrix(0.06172839506172839,0,0,0.06172839506172839,0,0)" xlink:href="#E"/><use transform="matrix(0.06172839506172839,0,0,0.06172839506172839,18.456790123456788,0)" xlink:href="#F"/><use transform="matrix(0.06172839506172839,0,0,0.06172839506172839,30.80246913580247,0)" xlink:href="#G"/><use transform="matrix(0.06172839506172839,0,0,0.06172839506172839,36.97530864197531,0)" xlink:href="#H"/><use transform="matrix(0.06172839506172839,0,0,0.06172839506172839,49.32098765432099,0)" xlink:href="#I"/><use transform="matrix(0.06172839506172839,0,0,0.06172839506172839,61.666666666666664,0)" xlink:href="#H"/><use transform="matrix(0.06172839506172839,0,0,0.06172839506172839,74.01234567901234,0)" xlink:href="#G"/><use transform="matrix(0.06172839506172839,0,0,0.06172839506172839,80.18518518518518,0)" xlink:href="#H"/></g></defs></g></svg>